<?xml version="1.0" encoding="UTF-8"?>
<svg xmlns="http://www.w3.org/2000/svg" xmlns:xlink="http://www.w3.org/1999/xlink" width="360px" height="160px" viewBox="0 0 360 160" version="1.1">
<g id="surface1">
<path style=" stroke:none;fill-rule:nonzero;fill:rgb(19.215687%,19.215687%,19.215687%);fill-opacity:1;" d="M 9.617188 137.140625 C 9.617188 129.484375 14.996094 123.273438 21.632812 123.273438 L 60.011719 123.273438 L 64.820312 114.03125 L 20.03125 114.03125 C 13.734375 114.027344 7.796875 117.449219 4.007812 123.277344 C 1.402344 127.269531 -0.00390625 132.136719 0 137.140625 C -0.00390625 142.144531 1.402344 147.011719 4.007812 151.007812 C 7.792969 156.835938 13.730469 160.261719 20.03125 160.257812 L 60.011719 160.257812 L 64.820312 151.015625 L 21.632812 151.015625 C 16.546875 151.019531 12.011719 147.316406 10.304688 141.769531 C 9.847656 140.289062 9.617188 138.722656 9.617188 137.148438 Z M 286.089844 127.898438 C 286.089844 120.238281 280.707031 114.03125 274.070312 114.03125 L 221.269531 114.03125 L 226.074219 123.277344 L 274.070312 123.277344 C 276.285156 123.277344 278.078125 125.34375 278.078125 127.898438 C 278.078125 130.449219 276.285156 132.519531 274.070312 132.519531 L 221.269531 132.519531 L 221.269531 160.257812 L 230.882812 160.257812 L 230.882812 141.765625 L 266.421875 141.765625 L 275.675781 160.257812 L 286.089844 160.257812 L 276.675781 141.4375 C 282.167969 140.039062 286.085938 134.40625 286.089844 127.898438 M 346.402344 114.027344 L 323.574219 134.296875 L 300.746094 114.027344 L 286.648438 114.027344 L 317.882812 141.765625 L 317.882812 160.257812 L 328.765625 160.257812 L 328.765625 141.765625 L 360.003906 114.027344 Z M 157.144531 127.78125 C 157.199219 125.273438 158.972656 123.273438 161.140625 123.273438 L 207.542969 123.273438 L 212.351562 114.027344 L 159.546875 114.027344 C 152.910156 114.027344 147.527344 120.238281 147.527344 127.894531 L 147.527344 160.253906 L 207.542969 160.253906 L 212.351562 151.011719 L 157.144531 151.011719 L 157.144531 141.765625 L 197.925781 141.765625 L 202.734375 132.519531 L 157.140625 132.519531 Z M 258.742188 55.242188 C 253.679688 57.890625 247.761719 57.144531 243.261719 53.378906 L 237.316406 48.410156 L 197.3125 14.988281 L 197.179688 14.878906 L 197.058594 14.777344 L 196.777344 14.550781 C 195.132812 13.226562 190.054688 9.253906 186.300781 7.515625 C 186.285156 7.527344 186.273438 7.539062 186.253906 7.550781 C 185.960938 7.390625 185.660156 7.246094 185.355469 7.117188 C 185.332031 7.105469 185.308594 7.09375 185.285156 7.085938 C 184.332031 6.679688 183.347656 6.382812 182.34375 6.199219 C 183.871094 6.210938 185.382812 6.234375 186.886719 6.273438 L 187.886719 6.300781 C 212.914062 7.003906 235.148438 11.046875 250.71875 17.109375 L 250.722656 17.109375 C 265.066406 22.691406 273.753906 29.996094 273.753906 37.980469 C 273.753906 44.34375 268.238281 50.269531 258.738281 55.242188 Z M 217.851562 67.0625 C 206.273438 68.800781 193.46875 69.761719 180.007812 69.761719 C 166.539062 69.761719 153.738281 68.800781 142.160156 67.066406 C 131.589844 64.863281 136.679688 56.589844 139.449219 53.039062 C 140.207031 52.078125 140.726562 51.511719 140.820312 51.417969 C 140.832031 51.410156 140.832031 51.402344 140.832031 51.402344 C 142.644531 49.28125 144.480469 47.1875 146.339844 45.117188 C 152.339844 38.421875 158.566406 32 165.007812 25.871094 C 166.929688 24.042969 168.851562 22.257812 170.769531 20.53125 L 170.78125 20.519531 C 170.988281 20.324219 171.195312 20.136719 171.414062 19.957031 C 172.882812 18.691406 176.621094 15.804688 180.007812 15.816406 C 183.386719 15.804688 187.125 18.691406 188.59375 19.957031 C 188.671875 20.015625 188.734375 20.074219 188.796875 20.132812 L 188.964844 20.28125 C 189.042969 20.34375 189.105469 20.402344 189.144531 20.441406 L 189.210938 20.503906 L 189.242188 20.53125 C 191.183594 22.285156 193.101562 24.066406 195.007812 25.871094 C 201.441406 32 207.667969 38.421875 213.667969 45.117188 C 215.53125 47.191406 217.375 49.289062 219.191406 51.417969 L 219.238281 51.476562 C 219.410156 51.652344 219.871094 52.171875 220.449219 52.902344 L 220.457031 52.910156 C 223.203125 56.386719 228.546875 64.832031 217.851562 67.066406 Z M 116.746094 53.378906 C 112.246094 57.144531 106.332031 57.890625 101.269531 55.242188 C 91.769531 50.273438 86.253906 44.34375 86.253906 37.980469 C 86.253906 29.996094 94.941406 22.691406 109.285156 17.109375 C 124.847656 11.046875 147.089844 7.003906 172.117188 6.300781 L 173.121094 6.273438 C 174.628906 6.234375 176.140625 6.210938 177.671875 6.199219 C 176.644531 6.382812 175.664062 6.679688 174.722656 7.085938 C 174.714844 7.09375 174.695312 7.09375 174.6875 7.097656 C 174.371094 7.234375 174.058594 7.386719 173.75 7.550781 C 169.949219 9.253906 164.871094 13.226562 163.230469 14.550781 L 162.953125 14.777344 L 162.695312 14.988281 L 122.6875 48.410156 Z M 252.230469 10.636719 C 236.828125 5.320312 217.433594 1.671875 195.988281 0.453125 C 190.875 0.164062 185.75 0.0117188 180.628906 0 L 179.371094 0 C 174.15625 0.0117188 169.035156 0.164062 164.015625 0.453125 C 142.5625 1.671875 123.171875 5.316406 107.765625 10.636719 C 85.703125 18.253906 71.832031 29.304688 71.832031 41.605469 C 71.832031 52.023438 81.789062 61.550781 98.234375 68.847656 C 104.910156 71.808594 112.65625 74.410156 121.25 76.542969 C 128.230469 78.289062 135.777344 79.734375 143.753906 80.816406 C 155.085938 82.367188 167.289062 83.214844 180.003906 83.214844 C 192.714844 83.214844 204.914062 82.371094 216.246094 80.816406 C 223.800781 79.804688 231.3125 78.378906 238.753906 76.542969 C 247.34375 74.40625 255.09375 71.808594 261.769531 68.847656 C 278.214844 61.550781 288.167969 52.023438 288.167969 41.605469 C 288.167969 29.308594 274.292969 18.253906 252.234375 10.636719 Z M 128.945312 114.027344 L 128.945312 132.519531 L 83.351562 132.519531 L 83.351562 114.027344 L 73.738281 114.027344 L 73.738281 160.257812 L 83.351562 160.257812 L 83.351562 141.761719 L 128.945312 141.761719 L 128.945312 160.257812 L 138.5625 160.257812 L 138.5625 114.027344 Z M 128.945312 114.027344 "/>
</g>
</svg>
